{
	"accessors" : 
	[
		{
			"bufferView" : 2,
			"byteOffset" : 0,
			"componentType" : 5126,
			"count" : 9824,
			"max" : 
			[
				0.729918897151947,
				0.3250369727611542,
				0.05459228157997131,
				1
			],
			"min" : 
			[
				0.729918897151947,
				0.3250369727611542,
				0.05459228157997131,
				1
			],
			"name" : "accessor_color_m0-PolyPaper19_-419692",
			"type" : "VEC4"
		},
		{
			"bufferView" : 2,
			"byteOffset" : 157184,
			"componentType" : 5126,
			"count" : 5192,
			"max" : 
			[
				0.729918897151947,
				0.3250369727611542,
				0.05459228157997131,
				1
			],
			"min" : 
			[
				0.729918897151947,
				0.3250369727611542,
				0.05459228157997131,
				1
			],
			"name" : "accessor_color_m1-PolyPaper19_-422334",
			"type" : "VEC4"
		},
		{
			"bufferView" : 2,
			"byteOffset" : 240256,
			"componentType" : 5126,
			"count" : 9936,
			"max" : 
			[
				0.729918897151947,
				0.3250369727611542,
				0.05459228157997131,
				1
			],
			"min" : 
			[
				0.729918897151947,
				0.3250369727611542,
				0.05459228157997131,
				1
			],
			"name" : "accessor_color_m2-PolyPaper19_-419760",
			"type" : "VEC4"
		},
		{
			"bufferView" : 0,
			"byteOffset" : 0,
			"componentType" : 5123,
			"count" : 14736,
			"max" : 
			[
				9823
			],
			"min" : 
			[
				0
			],
			"name" : "accessor_indices_0_m0-PolyPaper19_-419692",
			"type" : "SCALAR"
		},
		{
			"bufferView" : 0,
			"byteOffset" : 29472,
			"componentType" : 5123,
			"count" : 7752,
			"max" : 
			[
				5191
			],
			"min" : 
			[
				0
			],
			"name" : "accessor_indices_0_m1-PolyPaper19_-422334",
			"type" : "SCALAR"
		},
		{
			"bufferView" : 0,
			"byteOffset" : 44976,
			"componentType" : 5123,
			"count" : 14904,
			"max" : 
			[
				9935
			],
			"min" : 
			[
				0
			],
			"name" : "accessor_indices_0_m2-PolyPaper19_-419760",
			"type" : "SCALAR"
		},
		{
			"bufferView" : 1,
			"byteOffset" : 117888,
			"componentType" : 5126,
			"count" : 9824,
			"max" : 
			[
				0.9999171,
				0.9993873,
				0.9958997000000001
			],
			"min" : 
			[
				-0.9999597,
				-0.9989101,
				-0.9963219
			],
			"name" : "accessor_normal_m0-PolyPaper19_-419692",
			"type" : "VEC3"
		},
		{
			"bufferView" : 1,
			"byteOffset" : 298080,
			"componentType" : 5126,
			"count" : 5192,
			"max" : 
			[
				0.9986709,
				0.9998644,
				0.9993109
			],
			"min" : 
			[
				-0.9985575,
				-0.9999825,
				-0.9984452
			],
			"name" : "accessor_normal_m1-PolyPaper19_-422334",
			"type" : "VEC3"
		},
		{
			"bufferView" : 1,
			"byteOffset" : 479616,
			"componentType" : 5126,
			"count" : 9936,
			"max" : 
			[
				0.9992231,
				0.9995248,
				0.9997212
			],
			"min" : 
			[
				-0.9995122,
				-0.9999664,
				-0.9997542
			],
			"name" : "accessor_normal_m2-PolyPaper19_-419760",
			"type" : "VEC3"
		},
		{
			"bufferView" : 1,
			"byteOffset" : 0,
			"componentType" : 5126,
			"count" : 9824,
			"max" : 
			[
				1.084711,
				1.453601,
				1.709184
			],
			"min" : 
			[
				0.2717614,
				0.5063804,
				0.5821723
			],
			"name" : "accessor_position_m0-PolyPaper19_-419692",
			"type" : "VEC3"
		},
		{
			"bufferView" : 1,
			"byteOffset" : 235776,
			"componentType" : 5126,
			"count" : 5192,
			"max" : 
			[
				1.016742,
				1.328345,
				1.765631
			],
			"min" : 
			[
				0.2671292,
				0.4684404,
				0.8679162
			],
			"name" : "accessor_position_m1-PolyPaper19_-422334",
			"type" : "VEC3"
		},
		{
			"bufferView" : 1,
			"byteOffset" : 360384,
			"componentType" : 5126,
			"count" : 9936,
			"max" : 
			[
				1.05502,
				1.348911,
				1.790011
			],
			"min" : 
			[
				0.2063553,
				0.4752618,
				0.9104436
			],
			"name" : "accessor_position_m2-PolyPaper19_-419760",
			"type" : "VEC3"
		}
	],
	"asset" : 
	{
		"copyright" : "Unknown",
		"generator" : "glTF 1-to-2 Upgrader for Google Blocks",
		"version" : "2.0"
	},
	"bufferViews" : 
	[
		{
			"buffer" : 0,
			"byteLength" : 74784,
			"byteOffset" : 0,
			"name" : "ushortBufferView",
			"target" : 34963
		},
		{
			"buffer" : 0,
			"byteLength" : 598848,
			"byteOffset" : 74784,
			"byteStride" : 12,
			"name" : "vec3BufferView",
			"target" : 34962
		},
		{
			"buffer" : 0,
			"byteLength" : 399232,
			"byteOffset" : 673632,
			"byteStride" : 16,
			"name" : "vec4BufferView",
			"target" : 34962
		}
	],
	"buffers" : 
	[
		{
			"byteLength" : 1072864,
			"name" : "model",
			"uri" : "model.bin"
		}
	],
	"materials" : 
	[
		{
			"alphaMode" : "OPAQUE",
			"doubleSided" : false,
			"name" : "BlocksPaper",
			"pbrMetallicRoughness" : 
			{
				"baseColorFactor" : 
				[
					1,
					1,
					1,
					1
				],
				"metallicFactor" : 0,
				"roughnessFactor" : 0.6
			}
		},
		{
			"alphaMode" : "BLEND",
			"doubleSided" : false,
			"name" : "BlocksGlass",
			"pbrMetallicRoughness" : 
			{
				"baseColorFactor" : 
				[
					0.2,
					0.2,
					1,
					0.3
				],
				"metallicFactor" : 1,
				"roughnessFactor" : 0.4
			}
		},
		{
			"alphaMode" : "OPAQUE",
			"doubleSided" : true,
			"name" : "BlocksGem",
			"pbrMetallicRoughness" : 
			{
				"baseColorFactor" : 
				[
					1,
					0.4,
					1,
					1
				],
				"metallicFactor" : 0,
				"roughnessFactor" : 0.1
			}
		}
	],
	"meshes" : 
	[
		{
			"name" : "mesh_m0-PolyPaper19_-419692",
			"primitives" : 
			[
				{
					"attributes" : 
					{
						"COLOR_0" : 0,
						"NORMAL" : 6,
						"POSITION" : 9
					},
					"indices" : 3,
					"material" : 0,
					"mode" : 4
				}
			]
		},
		{
			"name" : "mesh_m1-PolyPaper19_-422334",
			"primitives" : 
			[
				{
					"attributes" : 
					{
						"COLOR_0" : 1,
						"NORMAL" : 7,
						"POSITION" : 10
					},
					"indices" : 4,
					"material" : 0,
					"mode" : 4
				}
			]
		},
		{
			"name" : "mesh_m2-PolyPaper19_-419760",
			"primitives" : 
			[
				{
					"attributes" : 
					{
						"COLOR_0" : 2,
						"NORMAL" : 8,
						"POSITION" : 11
					},
					"indices" : 5,
					"material" : 0,
					"mode" : 4
				}
			]
		}
	],
	"nodes" : 
	[
		{
			"matrix" : 
			[
				1,
				0,
				0,
				0,
				0,
				1,
				0,
				0,
				0,
				0,
				1,
				0,
				0,
				0,
				0,
				1
			],
			"mesh" : 0,
			"name" : "node_MeshObject-1501159936-PolyPaper19"
		},
		{
			"matrix" : 
			[
				1,
				0,
				0,
				0,
				0,
				1,
				0,
				0,
				0,
				0,
				1,
				0,
				0,
				0,
				0,
				1
			],
			"mesh" : 1,
			"name" : "node_MeshObject-1757243008-PolyPaper19"
		},
		{
			"matrix" : 
			[
				1,
				0,
				0,
				0,
				0,
				1,
				0,
				0,
				0,
				0,
				1,
				0,
				0,
				0,
				0,
				1
			],
			"mesh" : 2,
			"name" : "node_MeshObject-982439872-PolyPaper19"
		}
	],
	"scene" : 0,
	"scenes" : 
	[
		{
			"extras" : {},
			"name" : "defaultScene",
			"nodes" : 
			[
				0,
				1,
				2
			]
		}
	]
}