<?xml version="1.0" encoding="utf-8"?>
<!-- Generator: Adobe Illustrator 23.0.6, SVG Export Plug-In . SVG Version: 6.00 Build 0)  -->
<svg version="1.1" id="Layer_1" xmlns="http://www.w3.org/2000/svg" xmlns:xlink="http://www.w3.org/1999/xlink" x="0px" y="0px"
	 viewBox="0 0 31.53 82.2" style="enable-background:new 0 0 31.53 82.2;" xml:space="preserve">
<style type="text/css">
	.st0{fill:#FFC200;}
</style>
<g id="FXUnL9.tif_5_">
	<g>
		<path class="st0" d="M14.95,0c0.54,0,1.07,0,1.61,0c1.5,0.37,2.87,1.01,3.98,2.11c3.94,3.9,5.89,8.72,6.43,14.14
			c0.2,2.04,0.05,4.12,0.09,6.17c0.01,0.27,0.15,0.67,0.34,0.77c1.62,0.76,2.16,2.06,2.16,3.77c-0.02,15.38-0.01,30.76-0.01,46.14
			c0,0.19-0.04,0.39,0.01,0.56c0.07,0.23,0.14,0.51,0.31,0.66c1.76,1.51,2.16,3.93,0.95,5.85c-0.68,1.08-1.72,1.63-2.87,2.03
			c-8.08,0-16.16,0-24.24,0c-0.1-0.05-0.19-0.1-0.29-0.14c-3.44-1.07-4.48-4.51-2.25-7.3c0.25-0.32,0.41-0.81,0.41-1.22
			c0.03-5.83,0.02-11.66,0.02-17.49c0-9.79,0-19.57,0-29.36c0-1.95,0.63-2.87,2.35-3.59c0.19-0.08,0.38-0.41,0.39-0.63
			c0.04-1.2,0.06-2.41,0.01-3.61C4.19,14.96,5.14,11.29,6.9,7.83C8.68,4.32,10.82,1.12,14.95,0z M6.29,51.08c0,6.93,0,13.85,0,20.78
			c0,0.29-0.01,0.59,0.02,0.88c0.14,1.12,1,1.92,2.09,1.96c1.14,0.05,2.06-0.68,2.27-1.83c0.06-0.34,0.06-0.69,0.06-1.04
			c0-13.85,0-27.71,0-41.56c0-0.35,0-0.7-0.07-1.04c-0.22-1.18-1.18-1.89-2.37-1.8c-1.23,0.1-2,1.06-2.01,2.54
			C6.29,37.01,6.29,44.04,6.29,51.08z"/>
	</g>
</g>
</svg>
