<?xml version="1.0" encoding="utf-8"?>
<!-- Generator: Adobe Illustrator 23.0.6, SVG Export Plug-In . SVG Version: 6.00 Build 0)  -->
<svg version="1.1" id="Layer_1" xmlns="http://www.w3.org/2000/svg" xmlns:xlink="http://www.w3.org/1999/xlink" x="0px" y="0px"
	 viewBox="0 0 84 73.53" style="enable-background:new 0 0 84 73.53;" xml:space="preserve">
<style type="text/css">
	.st0{fill:#FF0000;}
</style>
<g id="D11y0e.tif_2_">
	<g>
		<path class="st0" d="M0,25.16c0-2.33,0-4.67,0-7c0.19-0.42,0.45-0.83,0.57-1.27c2.48-9.6,9.57-15.7,19.38-16.63
			c8.52-0.81,16.89,4.17,20.94,12.46c0.31,0.63,0.68,1.24,1.17,2.11c0.68-1.37,1.16-2.41,1.71-3.42
			c4.3-7.89,12.58-12.25,21.33-11.26c8.44,0.95,15.68,7.25,18.05,15.67c2.51,8.95-0.69,16.19-6.8,22.51
			C65.47,49.55,54.56,60.76,43.65,71.97c-0.52,0.53-1.11,0.99-1.76,1.57C31.34,62.67,20.98,51.89,10.48,41.26
			C5.85,36.58,1.73,31.68,0,25.16z"/>
	</g>
</g>
</svg>
